Motion_pl12
version=1
nRows=10
nColumns=43
inDegrees=yes
endheader
time	pelvis_tilt	pelvis_list	pelvis_rotation	pelvis_tx	pelvis_ty	pelvis_tz	hip_flexion_r	hip_adduction_r	hip_rotation_r	knee_angle_r	ankle_angle_r	subtalar_angle_r	mtp_angle_r	hip_flexion_l	hip_adduction_l	hip_rotation_l	knee_angle_l	ankle_angle_l	subtalar_angle_l	mtp_angle_l	lumbar_extension	lumbar_bending	lumbar_rotation	neck_flexion	neck_lateral_bending	neck_rotation	arm_flex_r	arm_add_r	arm_rot_r	elbow_flex_r	pro_sup_r	wrist_flex_r	wrist_dev_r	hand_finger_flex_r	arm_flex_l	arm_add_l	arm_rot_l	elbow_flex_l	pro_sup_l	wrist_flex_l	wrist_dev_l	hand_finger_flex_l
      0.98250000	     -3.91560607	     -1.17517627	     91.78173042	     -0.02887219	      0.47295517	      0.43896706	     96.08199355	     -6.23390106	      5.72431683	   -136.93693723	     21.60031918	      6.01120081	     25.02275422	     95.19772597	     -8.44285548	     -0.75813925	   -134.12390166	     17.88299565	     23.79479814	     26.00449182	    -67.47121571	      0.49851430	     -0.11505441	     30.37338051	     -1.30588745	     -4.92651973	    102.80522247	    -22.76077686	     23.06053410	     75.32563595	     95.22199105	     -1.60149704	    -12.32138901	     -6.27674436	    106.53945824	    -18.81891065	     26.88622546	     55.16351040	    118.90875057	    -38.07991589	     -8.23268144	    -15.44144642
      0.98500000	     -3.88141585	     -1.44231150	     91.78421655	     -0.02866515	      0.47405519	      0.43894513	     96.16886231	     -6.21422127	      5.68495536	   -136.72899140	     21.54821830	      6.07188819	     25.01783813	     95.33296749	     -8.50067258	     -0.64070008	   -133.87299709	     17.62174101	     24.18079751	     26.21953410	    -67.28002909	      0.49769968	     -0.13463590	     30.55333975	     -1.24131414	     -4.96137969	    102.83723874	    -22.72667427	     23.17616603	     75.22762957	     95.08376979	     -1.58731601	    -12.20993063	     -6.49252722	    106.53992025	    -18.93924647	     26.96349598	     55.10553347	    118.84638746	    -38.03939101	     -8.17144098	    -15.48151764
      0.98750000	     -3.87297443	     -1.59733092	     91.79660918	     -0.02850221	      0.47542802	      0.43878940	     96.10002089	     -6.23029321	      5.65015898	   -136.51895496	     21.51885227	      6.09442865	     25.01419677	     95.28453003	     -8.54871765	     -0.63781407	   -133.62750348	     17.57939541	     24.25103143	     26.25675374	    -67.19834108	      0.49695576	     -0.14179434	     30.52426741	     -1.24112377	     -4.95542071	    102.78458579	    -22.75099435	     23.20177601	     75.24979877	     95.05843320	     -1.57979335	    -12.20195661	     -6.52717736	    106.47947517	    -19.00881670	     26.96875726	     55.07199831	    118.82300680	    -38.03579375	     -8.15217451	    -15.49156026
      0.99000000	     -3.85592409	     -1.92537293	     91.78971823	     -0.02824479	      0.47631729	      0.43872503	     96.27560486	     -6.20016754	      5.63578920	   -136.32544177	     21.45771779	      6.18193237	     25.02532605	     95.50257159	     -8.63024522	     -0.47465957	   -133.37325353	     17.23739050	     24.92123435	     26.55748532	    -66.93355408	      0.47949039	     -0.17252447	     30.71217563	     -1.24603988	     -4.89961920	    102.75685330	    -22.71174568	     23.27375703	     75.20827473	     94.87224428	     -1.59596368	    -12.10250469	     -6.80866977	    106.43235306	    -19.15462286	     27.03940951	     55.09578934	    118.63921253	    -37.98270148	     -8.09254152	    -15.57376193
      0.99250000	     -3.84973821	     -2.07096726	     91.79750359	     -0.02811421	      0.47764348	      0.43852843	     96.19972232	     -6.21806959	      5.59827043	   -136.12205409	     21.43015426	      6.20022243	     25.02424626	     95.43987244	     -8.67985433	     -0.46775530	   -133.13862252	     17.21682757	     24.98499132	     26.60298268	    -66.84970736	      0.47923227	     -0.17999722	     30.67953215	     -1.24527080	     -4.89073848	    102.70003366	    -22.73366758	     23.30034832	     75.22292619	     94.85173609	     -1.58490652	    -12.09490651	     -6.84210513	    106.36830980	    -19.22430852	     27.04210892	     55.06109660	    118.60340753	    -37.97410525	     -8.07652535	    -15.58568413
      0.99500000	     -3.82739623	     -2.37309093	     91.77225156	     -0.02784549	      0.47850130	      0.43840834	     96.35049256	     -6.17834769	      5.58190817	   -135.93002936	     21.37027029	      6.25962556	     25.06047029	     95.62432789	     -8.78140949	     -0.29721733	   -132.90849070	     16.95214844	     25.74112166	     27.03552031	    -66.60080341	      0.45918679	     -0.20927633	     30.86305189	     -1.29232511	     -4.77060642	    102.66209761	    -22.65561014	     23.35502263	     75.18576877	     94.66826744	     -1.56775595	    -12.02354136	     -7.16734629	    106.29659830	    -19.40498672	     27.09184639	     55.11123080	    118.28367986	    -37.87165233	     -8.04617819	    -15.68728547
      0.99750000	     -3.82301166	     -2.49546945	     91.79223571	     -0.02758792	      0.47972717	      0.43814700	     96.27415873	     -6.19944462	      5.54919230	   -135.76054143	     21.34858746	      6.27334140	     25.06073826	     95.54026329	     -8.82141910	     -0.28304287	   -132.69045965	     16.93601445	     25.76494464	     27.06587665	    -66.51651838	      0.44449785	     -0.21623090	     30.85286848	     -1.29173388	     -4.76850727	    102.59377648	    -22.67071843	     23.38974390	     75.16543800	     94.66186651	     -1.55330131	    -12.01272320	     -7.18547792	    106.22959051	    -19.45026290	     27.10000287	     55.06888044	    118.25577854	    -37.85957654	     -8.03408826	    -15.69267484
      1.00000000	     -3.81832640	     -2.67511395	     91.79347052	     -0.02748622	      0.48105020	      0.43809637	     96.24795257	     -6.23151777	      5.51760767	   -135.53411915	     21.32847049	      6.30276639	     25.06989926	     95.52413232	     -8.88697289	     -0.27304040	   -132.43220597	     16.87460733	     25.89944836	     27.14839792	    -66.42712944	      0.44078487	     -0.23911166	     30.88172640	     -1.29675170	     -4.75283073	    102.60731198	    -22.64500056	     23.38286824	     75.12218645	     94.63328406	     -1.55006659	    -11.99844661	     -7.24454776	    106.23101532	    -19.51590354	     27.07401567	     55.01565770	    118.17161457	    -37.82581068	     -8.00558712	    -15.70341519
      1.00250000	     -3.82949829	     -2.91862964	     91.78808086	     -0.02726270	      0.48194146	      0.43794182	     96.32815965	     -6.21720121	      5.52899930	   -135.36608931	     21.33328420	      6.40569694	     25.13215546	     95.61816741	     -8.93587074	     -0.17595357	   -132.21635236	     16.65089380	     26.46753233	     27.49182754	    -66.22771213	      0.42396270	     -0.31046360	     31.10514391	     -1.32293934	     -4.69012940	    102.58745730	    -22.51559861	     23.40738162	     74.99267248	     94.52747635	     -1.51977574	    -11.97168467	     -7.46724871	    106.17831255	    -19.66710605	     27.09063531	     55.03239348	    117.88198537	    -37.68239391	     -7.96962161	    -15.72773597
      1.00500000	     -3.81898385	     -3.03403436	     91.80288027	     -0.02706394	      0.48307483	      0.43766229	     96.24106780	     -6.25383020	      5.50309259	   -135.18933241	     21.31235400	      6.42627697	     25.13478694	     95.54295227	     -8.99126347	     -0.18706558	   -132.03646303	     16.63857853	     26.49298392	     27.52237149	    -66.14651265	      0.42301303	     -0.31617145	     31.07904793	     -1.31013934	     -4.69504880	    102.52163991	    -22.51993112	     23.44754500	     75.00519967	     94.52265167	     -1.50128982	    -11.97105487	     -7.48122405	    106.11624929	    -19.73637317	     27.08829600	     54.98373241	    117.85283613	    -37.66893815	     -7.95313463	    -15.72874771
